PathFileType	4	(X/Y/Z)	32_2_14_p0_0-157_filt_butterworth.trc
DataRate	CameraRate	NumFrames	NumMarkers	Units	OrigDataRate	OrigDataStartFrame	OrigNumFrames
60.0	60.0	7	27	m	60.0	39	157
Frame#	Time	RHip			RKnee			RAnkle			RBigToe			RSmallToe			RHeel			LHip			LKnee			LAnkle			LBigToe			LSmallToe			LHeel			Neck			Head			Nose			RShoulder			RElbow			RWrist			RThumb			RIndex			RPinky			LShoulder			LElbow			LWrist			LThumb			LIndex			LPinky			
		X1	Y1	Z1	X2	Y2	Z2	X3	Y3	Z3	X4	Y4	Z4	X5	Y5	Z5	X6	Y6	Z6	X7	Y7	Z7	X8	Y8	Z8	X9	Y9	Z9	X10	Y10	Z10	X11	Y11	Z11	X12	Y12	Z12	X13	Y13	Z13	X14	Y14	Z14	X15	Y15	Z15	X16	Y16	Z16	X17	Y17	Z17	X18	Y18	Z18	X19	Y19	Z19	X20	Y20	Z20	X21	Y21	Z21	X22	Y22	Z22	X23	Y23	Z23	X24	Y24	Z24	X25	Y25	Z25	X26	Y26	Z26	X27	Y27	Z27	
39	0.65	0.32635387884309575	0.9369466867396481	0.4975170958896631	0.31537116833750367	0.5061215285835219	0.49816910325541924	0.31439364582600693	0.08492614494269479	0.4894477262991253	0.30645471095435184	0.09255070984122177	0.32021897713332315	0.36850495463159283	0.08610538174420924	0.34639131232032566	0.29626763339254364	-0.025356470189666695	0.5702025068582897	0.12378971429445002	0.9198034009414894	0.5238402354596418	0.13453027269708123	0.4949118760111563	0.5288371298808587	0.14218805950893224	0.044310843458417556	0.5146067417429205	0.15744361667718587	0.06962652849503925	0.3491837335606329	0.10765342533930579	0.0678498900488988	0.37185513056719044	0.1605500779314885	-0.0010860766008351022	0.5390280578241344	0.2412552804418291	1.506605839583824	0.5160984722940645	0.2409570608095678	1.7380034890402456	0.5200539209874832	0.2359074544866411	1.6372917083445597	0.4362717113533532	0.39902535086252694	1.4268399391635942	0.5086761351288628	0.5713970782678428	1.3128165110441126	0.38887088156632194	0.704811144133006	1.4293468057075258	0.25376037587006983	0.7272801556134842	1.5125954601715685	0.24532433629120226	0.7349844463056184	1.4961021859628347	0.2356938392620717	0.7272758329710035	1.467109630889269	0.21960382810652435	0.07042965884978133	1.4486115193071873	0.5190616935132442	-0.07559769905542993	1.300604330380628	0.41636267160238993	-0.11271770222175098	1.467554153020581	0.25955027037076195	-0.12345544633976437	1.5538215858645321	0.21593801820958086	-0.13497871311007736	1.5613616231584777	0.18577903213960212	-0.13524767781705177	1.5310589468401579	0.18387430551922274	
40	0.6666666666666666	0.32558941545773984	0.9370647354847546	0.4973077851357083	0.3154891067532646	0.5061530578591222	0.4966423744592017	0.3139566774616622	0.08467527933194821	0.4899366725396502	0.30546291533315495	0.09091445830166427	0.3222517951590475	0.3683978097840794	0.08625283939026052	0.34612824729788516	0.29643860024560853	-0.024081382784189274	0.569737830121428	0.12393847817564765	0.9200766659018734	0.5215977914884805	0.13440824912083696	0.4936037322467818	0.5291195278266481	0.1421093166098776	0.0444564906650791	0.5145311947664055	0.15811090814257478	0.07019584342624585	0.34857894628965047	0.10788137853588936	0.06807064130110146	0.37185098783926185	0.16054151372938716	-0.001434699503839617	0.5391952299198142	0.2421905554481027	1.5068457476671988	0.5158218582667402	0.24273732557532832	1.7362015117022125	0.5220127301406113	0.2388299624035074	1.6372150097781508	0.42863343001099624	0.40068165189563865	1.4292833944664232	0.5066723987894917	0.5880179661158242	1.333679582386837	0.391479643633466	0.7183508324514072	1.469382720691176	0.2723706629235613	0.7294181307265734	1.5600119179579464	0.2743672482605143	0.7385642443098657	1.5466157478728175	0.2648818780757997	0.7366325657502732	1.5175394317006101	0.2524557453061541	0.07033174623881186	1.4504088478442492	0.5179610574713509	-0.08850300674245057	1.3219883933126038	0.4056000950622947	-0.12931468219288453	1.5033456053500298	0.27319096117123753	-0.13691548763792777	1.593809108818081	0.23059493450790133	-0.15071536793527932	1.6031069533604483	0.20637965717812543	-0.15607662180761298	1.5731661434443227	0.20859858070359977	
41	0.6833333333333333	0.3249095175360301	0.9369453052551274	0.4969407074513701	0.3153854964791118	0.5064932496048085	0.4945387209243944	0.31349597659732276	0.08466881999050668	0.4902325866354631	0.3044010675347106	0.0888041989081621	0.32507646834579856	0.36836156429003913	0.08621020558806385	0.3460920478988928	0.29653818722722886	-0.023023005587495156	0.5691991578280486	0.12416571664599292	0.9205472499040442	0.5191435762400703	0.13437644059848414	0.49237915785732406	0.5287737583155634	0.14199393504538202	0.044765416628490984	0.5144099333074297	0.15903593697606336	0.07209773223261301	0.3462353209972872	0.10783475440775472	0.06813138853162717	0.37176274574652046	0.1604689846483702	-0.001775262041522216	0.5393633391979976	0.2428181461159355	1.506919485947194	0.5156265153279771	0.2443673802001256	1.7343412126082336	0.5229879195115278	0.2417487305314845	1.637188515059405	0.42103085255757156	0.4022070299693191	1.4319596788944948	0.5062363334051067	0.6021734497249049	1.356512693291832	0.39683472372908146	0.726786563646203	1.5054510030481112	0.2933365908439809	0.7253290669285515	1.6014820191913444	0.2995806312234735	0.7355570090932334	1.5915305841905132	0.29127930632976196	0.7399971879812799	1.5625983233494378	0.2832941658503282	0.07018628873121986	1.4517516847457048	0.5167664217688211	-0.10058577542429217	1.344309956921455	0.4002688084369955	-0.14336468374174338	1.5355572307884853	0.28967004522354123	-0.14436402270023246	1.6303602133918536	0.24507820023696253	-0.1593228633249592	1.6411725497240972	0.22754532858436294	-0.17067592280000612	1.6109581602167449	0.23506911447301726	
42	0.7	0.32459625167988637	0.9365578569330126	0.49625873322457076	0.31501171256777943	0.5071962370385833	0.4918456908877592	0.3130505449407626	0.08496740457057955	0.49008501359118656	0.3034681027766901	0.08657434671561187	0.32804356993558326	0.36836023160615794	0.08606579379977966	0.3463113673734731	0.2965721332632252	-0.022262258094906996	0.5686109115896264	0.12445142184766328	0.9214041019320129	0.5160680701535113	0.13444590821470925	0.49136824740561447	0.5278308902969657	0.14183587024915328	0.045181345789557736	0.514249868386762	0.15995287406223258	0.07462571864995093	0.34307949163497853	0.1077006992316685	0.06812274571404987	0.3716814512367899	0.16032183177658113	-0.002037160945792711	0.5394883245039455	0.2433959187882036	1.5068634817191329	0.5156216890353148	0.24573719911647968	1.7327256728069946	0.5230785407888899	0.24459461225598023	1.637141137462273	0.414400374991562	0.4037186745150769	1.434975063577649	0.5072992545291022	0.6133284590047811	1.3797781472212838	0.40374442001058114	0.7302267347200938	1.5371371374605325	0.31635774353191365	0.7157102527636092	1.636196360301932	0.3214178276503032	0.7265004342941491	1.6300513189352215	0.3141485832381989	0.7373092219783273	1.6025186634002804	0.31099018029738446	0.06985458875681795	1.453018212075916	0.5154363740130445	-0.1110956555821874	1.3663901380159957	0.3995888654393842	-0.15432277105990475	1.5636803075458607	0.3065111563783082	-0.14616307519061963	1.6620519707647134	0.26107754534667194	-0.16127011842603603	1.6747749956686888	0.24893825148116266	-0.17795519939404514	1.6440712949595957	0.26091318548817566	
43	0.7166666666666667	0.3247783807665476	0.93604211771369	0.495247642656021	0.3144977732768635	0.508162465872736	0.4886935259624682	0.31263948972456135	0.08553822616553208	0.4894196314750907	0.30275438264016363	0.08453840831173678	0.3307171296227107	0.36832393819105985	0.08603360590090547	0.34664587205681785	0.29651294307340353	-0.021797160932968476	0.5680681938327645	0.12481058120381712	0.9226421764989201	0.5122814477151568	0.13464623001326317	0.49072512822149494	0.5264069466424468	0.1416239838537437	0.04566157587384987	0.5140570744721913	0.16058597953135773	0.07684428483268693	0.3403171237282679	0.10761007372489756	0.06812561010975221	0.3716487977372942	0.16010929763948348	-0.002228705929889132	0.539590178879841	0.24404291675931866	1.5067032273800134	0.5158525202728073	0.2467047285364553	1.7316454462794977	0.5221533576804256	0.24717575851764115	1.6369366579236257	0.40946016588612244	0.4052100559487796	1.4383599175229873	0.5095195652674561	0.6217381899305656	1.4017829202918397	0.4114120925214464	0.7292389374753036	1.5645275651203876	0.3403635999316845	0.7014672724085056	1.6636707723453048	0.34030260493842107	0.7124045853992828	1.6616109598537177	0.3336966529627604	0.7290178088548498	1.6366375065474206	0.33528670232521507	0.06934684798098856	1.4544997736164014	0.5137892499520433	-0.11943053767628697	1.3873908529493595	0.40188911116433346	-0.1615579923879099	1.5873496957066564	0.32220134589664307	-0.14222489400322083	1.6877494912805169	0.2797196499557556	-0.15734160954212006	1.702883443014158	0.2707294222087343	-0.17800289618148069	1.671852563918736	0.2841992423197716	
44	0.7333333333333333	0.3253416630565185	0.9356917691752826	0.4938694916281398	0.3140371084136871	0.5092479295647616	0.4853368004927407	0.3122653084244226	0.08634674392541142	0.4882863638343508	0.30231474093746513	0.08298809945266837	0.3327878749956317	0.36827115214036454	0.08636771212797104	0.3467251545552278	0.2963397987748582	-0.021618301583106528	0.5676368958421851	0.1252601687423392	0.924185755408174	0.5079418582885189	0.1350279091436531	0.49063118469261047	0.5245254222372804	0.14135503269060423	0.046202007228763706	0.513835817218418	0.1607994085428212	0.07813515911777139	0.3387394830003715	0.1075816685095056	0.06816090526528652	0.3716579937896156	0.15985022008114594	-0.002389459805574739	0.5397199398001653	0.24476853365770762	1.5064397720756744	0.5163032803931558	0.24717297053972664	1.7313160628350908	0.5200401311205436	0.249331542924976	1.6365386615319388	0.40629037652969735	0.40663750858626024	1.442011125362929	0.5122929132040255	0.6282298317911853	1.421411249092472	0.419357311447957	0.7243725899818267	1.5883084891337511	0.36355717356538475	0.6831413383435758	1.6839245681840591	0.35711886320329805	0.6944291173738699	1.6859759019867262	0.35165637698237767	0.7162586441271948	1.6638105315815148	0.3560817254299167	0.06876687333735504	1.4562173064922748	0.5117688389918277	-0.12534319136112987	1.40673899184523	0.40542019908581106	-0.16468681794266618	1.6062960872198213	0.3373239596950963	-0.13288076365532941	1.7065787412019424	0.3008834773624434	-0.14865838839750783	1.7241169302576735	0.2937347514219264	-0.17179424850062763	1.6932934039434373	0.30435768340654923	
45	0.75	0.32610653583540866	0.9357359792786105	0.4920520258000868	0.313725760603618	0.510420256796375	0.4820358888943308	0.31192777883287687	0.08738250652979573	0.4867710275173045	0.3021581413727726	0.0821499863037224	0.3340100525390126	0.3682611703925295	0.08733539097898134	0.346013330033437	0.29606776304861043	-0.021730702251334513	0.5672523552410824	0.12578802956700108	0.9259831268365779	0.5032419877451496	0.13562842087605767	0.4911639773346644	0.522128666404548	0.14103530392995997	0.046810010836145485	0.5135871445751014	0.1605845365067028	0.07841024430831871	0.338443181094783	0.10758291970156647	0.0682184299668043	0.37169414991672106	0.15956554748513818	-0.0025476381046402215	0.5399131867041498	0.24555347005922062	1.5060540024735243	0.5169031686689987	0.24725145917451166	1.7317264821254743	0.5169821480065301	0.2510735132383985	1.6360588642362368	0.4043407634013062	0.40804728536224494	1.4456662409269199	0.5148632282441151	0.6336243860872144	1.4382040835503984	0.4274799843129474	0.7159570317066086	1.6092118858496487	0.3844724604079537	0.6609137820334874	1.6972944105776375	0.37341878123783334	0.6734736863634396	1.7030477793370729	0.36963359307668797	0.700257758913659	1.6833915445349603	0.3737823310224351	0.06821607068112563	1.4579116486453574	0.5096413356680364	-0.1291356106018089	1.4239182819676708	0.4092766978917968	-0.16362402654286246	1.6207427080940533	0.35295171531000624	-0.11913677692553881	1.7182277717045311	0.32318062745688836	-0.13633252438181048	1.737522771065965	0.31831449725181243	-0.16052971484245243	1.707578225831456	0.32208680694664105	
